HIERARCHY
ROOT SpineBase
{
  OFFSET 0.000000 0.000000 0.000000
  CHANNELS 6 Xposition Yposition Zposition Zrotation Xrotation Yrotation
  JOINT SpineMid
  {
    OFFSET 0.000000 33.478257 0.000000
    CHANNELS 3 Zrotation Xrotation Yrotation
    JOINT SpineShoulder
    {
      OFFSET -0.139257 24.939327 -0.852150
      CHANNELS 3 Zrotation Xrotation Yrotation
      JOINT Neck
      {
        OFFSET -0.120111 8.282524 -0.631529
        CHANNELS 3 Zrotation Xrotation Yrotation
        JOINT Head
        {
          OFFSET 1.758939 9.979324 3.483239
          CHANNELS 3 Zrotation Xrotation Yrotation
          End Site
          {
            OFFSET 0 0 0
          }
        }
      }
      JOINT ShoulderLeft
      {
        OFFSET -13.813421 -5.313982 3.280110
        CHANNELS 3 Zrotation Xrotation Yrotation
        JOINT ElbowLeft
        {
          OFFSET -0.421384 -31.507694 -3.158221
          CHANNELS 3 Zrotation Xrotation Yrotation
          JOINT WristLeft
          {
            OFFSET 3.502145 -22.013460 4.669990
            CHANNELS 3 Zrotation Xrotation Yrotation
            JOINT HandLeft
            {
              OFFSET 0.991981 -7.251682 -5.727495
              CHANNELS 3 Zrotation Xrotation Yrotation
              JOINT HandTipLeft
              {
                OFFSET 1.688156 -5.491766 -1.508865
                CHANNELS 3 Zrotation Xrotation Yrotation
                End Site
                {
                  OFFSET 0 0 0
                }
              }
              JOINT ThumbLeft
              {
                OFFSET -3.144564 -2.012088 0.368668
                CHANNELS 3 Zrotation Xrotation Yrotation
                End Site
                {
                  OFFSET 0 0 0
                }
              }
            }
          }
        }
      }
      JOINT ShoulderRight
      {
        OFFSET 10.049360 -4.811710 -12.348639
        CHANNELS 3 Zrotation Xrotation Yrotation
        JOINT ElbowRight
        {
          OFFSET 8.691180 -28.346864 -0.869307
          CHANNELS 3 Zrotation Xrotation Yrotation
          JOINT WristRight
          {
            OFFSET 5.624493 -24.395260 5.838212
            CHANNELS 3 Zrotation Xrotation Yrotation
            JOINT HandRight
            {
              OFFSET 0.080162 -4.090807 0.008911
              CHANNELS 3 Zrotation Xrotation Yrotation
              JOINT HandTipRight
              {
                OFFSET 0.277056 -6.110025 -0.918407
                CHANNELS 3 Zrotation Xrotation Yrotation
                End Site
                {
                  OFFSET 0 0 0
                }
              }
              JOINT ThumbRight
              {
                OFFSET -4.144569 0.856576 0.771812
                CHANNELS 3 Zrotation Xrotation Yrotation
                End Site
                {
                  OFFSET 0 0 0
                }
              }
            }
          }
        }
      }
    }
  }
  JOINT HipLeft
  {
    OFFSET -6.340009 1.131623 -0.848805
    CHANNELS 3 Zrotation Xrotation Yrotation
    JOINT KneeLeft
    {
      OFFSET 1.250156 -33.522378 -2.180729
      CHANNELS 3 Zrotation Xrotation Yrotation
      JOINT AnkleLeft
      {
        OFFSET -5.565397 -32.485602 2.175432
        CHANNELS 3 Zrotation Xrotation Yrotation
        JOINT FootLeft
        {
          OFFSET -5.991554 -2.626783 -11.606609
          CHANNELS 3 Zrotation Xrotation Yrotation
          End Site
          {
            OFFSET 0 0 0
          }
        }
      }
    }
  }
  JOINT HipRight
  {
    OFFSET 4.799212 1.878805 -6.144460
    CHANNELS 3 Zrotation Xrotation Yrotation
    JOINT KneeRight
    {
      OFFSET -3.039011 -33.549543 -2.580623
      CHANNELS 3 Zrotation Xrotation Yrotation
      JOINT AnkleRight
      {
        OFFSET 1.070688 -33.211952 -7.359299
        CHANNELS 3 Zrotation Xrotation Yrotation
        JOINT FootRight
        {
          OFFSET -6.158643 -2.566116 -11.529693
          CHANNELS 3 Zrotation Xrotation Yrotation
          End Site
          {
            OFFSET 0 0 0
          }
        }
      }
    }
  }
}
MOTION
Frames: 9
Frame Time: 0.033333
64.532186 71.028325 290.708711 -0.000000 0.000000 25.426708 -0.000000 0.000000 -25.426708 -0.000000 0.000000 0.000000 -0.000000 0.000000 0.000000 0.000000 0.000000 0.000000 -0.000000 0.000000 0.000000 -0.000000 0.000000 0.000000 -0.000000 0.000000 0.000000 -0.000000 0.000000 0.000000 0.000000 0.000000 0.000000 0.000000 0.000000 0.000000 -0.000000 0.000000 0.000000 -0.000000 0.000000 0.000000 -0.000000 0.000000 0.000000 -0.000000 0.000000 0.000000 0.000000 0.000000 0.000000 0.000000 0.000000 0.000000 -0.000000 0.000000 -25.426708 -0.000000 0.000000 0.000000 -0.000000 0.000000 0.000000 0.000000 0.000000 0.000000 -0.000000 0.000000 -25.426708 -0.000000 0.000000 0.000000 -0.000000 0.000000 0.000000 0.000000 0.000000 0.000000
64.534310 71.032701 290.701268 -0.027158 0.006699 25.296177 0.021691 -0.017661 -25.296172 -0.000000 0.000000 0.000000 -0.000000 0.000000 0.000000 0.000000 0.000000 0.000000 -0.000000 0.000000 0.000000 -0.000000 0.000000 0.000000 -0.000000 0.000000 0.000000 -0.000000 0.000000 0.000000 0.000000 0.000000 0.000000 0.000000 0.000000 0.000000 -0.000000 0.000000 0.000000 -0.000000 0.000000 0.000000 -0.345859 -2.075024 -0.047684 -2.790359 2.576200 0.656453 0.000000 0.000000 0.000000 0.000000 0.000000 0.000000 0.021691 -0.017661 -25.296172 -0.000000 0.000000 0.000000 -0.000000 0.000000 0.000000 0.000000 0.000000 0.000000 0.021691 -0.017661 -25.296172 -0.000000 0.000000 0.000000 -0.000000 0.000000 0.000000 0.000000 0.000000 0.000000
64.537849 71.037108 290.696708 -0.051454 0.011812 25.168890 0.041545 -0.032574 -25.168873 -0.000000 0.000000 0.000000 -0.000000 0.000000 0.000000 0.000000 0.000000 0.000000 -0.000000 0.000000 0.000000 -0.000000 0.000000 0.000000 -0.000000 0.000000 0.000000 0.865324 -0.796904 -0.476507 0.000000 0.000000 0.000000 0.000000 0.000000 0.000000 -0.000000 0.000000 0.000000 0.251980 1.076080 0.306575 -0.786314 -5.037841 -0.418407 -5.343483 4.697318 1.415115 0.000000 0.000000 0.000000 0.000000 0.000000 0.000000 0.041545 -0.032574 -25.168873 -0.000000 0.000000 0.000000 -0.000000 0.000000 0.000000 0.000000 0.000000 0.000000 0.041545 -0.032574 -25.168873 -0.000000 0.000000 0.000000 -0.000000 0.000000 0.000000 0.000000 0.000000 0.000000
64.542802 71.041547 290.695030 -0.072887 0.015337 25.044909 0.059541 -0.044750 -25.044876 -0.000000 0.000000 0.000000 -0.000000 0.000000 0.000000 0.000000 0.000000 0.000000 -0.000000 0.000000 0.000000 -0.000000 0.000000 0.000000 -0.000000 0.000000 0.000000 1.202136 -0.919329 -0.602639 0.000000 0.000000 0.000000 0.000000 0.000000 0.000000 -0.000000 0.000000 0.000000 0.371548 1.472183 0.424571 -0.919238 -7.078698 -0.585449 -7.528618 6.291878 2.154735 0.000000 0.000000 0.000000 0.000000 0.000000 0.000000 0.059541 -0.044750 -25.044876 -0.000000 0.000000 0.000000 -0.000000 0.000000 0.000000 0.000000 0.000000 0.000000 0.059541 -0.044750 -25.044876 -0.000000 0.000000 0.000000 -0.000000 0.000000 0.000000 0.000000 0.000000 0.000000
64.549169 71.046017 290.696234 -0.091453 0.017273 24.924294 0.075656 -0.054205 -24.924244 -0.000000 0.000000 0.000000 -0.000000 0.000000 0.000000 0.000000 0.000000 0.000000 -0.000000 0.000000 0.000000 -0.000000 0.000000 0.000000 -0.000000 0.000000 0.000000 1.477163 -0.852374 -0.655642 0.000000 0.000000 0.000000 0.000000 0.000000 0.000000 -0.000000 0.000000 0.000000 0.489021 1.776683 0.520524 -0.900379 -8.755318 -0.710007 -9.231327 7.343512 2.763279 0.000000 0.000000 0.000000 0.000000 0.000000 0.000000 0.075656 -0.054205 -24.924244 -0.000000 0.000000 0.000000 -0.000000 0.000000 0.000000 0.000000 0.000000 0.000000 0.075656 -0.054205 -24.924244 -0.519999 -0.623796 0.092409 0.521035 0.622931 -0.098073 0.000000 0.000000 0.000000
64.556950 71.050519 290.700321 -0.107151 0.017620 24.807101 0.089871 -0.060951 -24.807037 -0.000000 0.000000 0.000000 0.708492 0.277979 -0.298086 0.000000 0.000000 0.000000 -0.000000 0.000000 0.000000 -0.000000 0.000000 0.000000 -0.000000 0.000000 0.000000 1.690283 -0.589560 -0.634985 0.000000 0.000000 0.000000 0.000000 0.000000 0.000000 -0.119417 0.903398 0.281614 0.730333 1.082875 0.324821 -0.756160 -10.064249 -0.788696 -10.369781 7.878533 3.158587 0.000000 0.000000 0.000000 0.000000 0.000000 0.000000 0.089871 -0.060951 -24.807037 -0.000000 0.000000 0.000000 -0.000000 0.000000 0.000000 0.000000 0.000000 0.000000 0.902613 0.277547 -24.913123 -1.181835 -1.329114 0.199687 0.589643 0.677656 -0.112133 0.000000 0.000000 0.000000
64.565299 71.058129 290.706084 -0.115197 0.013297 24.670185 0.099132 -0.060165 -24.670120 -0.000000 0.000000 0.000000 0.631368 0.706262 -0.348344 0.000000 0.000000 0.000000 -0.000000 0.000000 0.000000 -0.000000 0.000000 0.000000 -0.000000 0.000000 0.000000 2.042510 -0.474697 -0.695671 0.000000 0.000000 0.000000 0.000000 0.000000 0.000000 -0.112406 1.207428 0.374834 0.893120 0.970608 0.320081 0.536363 -11.861053 -0.728958 -10.559913 8.499360 3.062442 0.000000 0.000000 0.000000 0.000000 0.000000 0.000000 0.099132 -0.060165 -24.670120 -0.000000 0.000000 0.000000 -0.000000 0.000000 0.000000 0.000000 0.000000 0.000000 1.048746 0.315660 -24.793398 -1.425839 -1.543459 0.236748 0.724628 0.800988 -0.139567 0.000000 0.000000 0.000000
64.576265 71.062487 290.717121 -0.120138 0.010168 24.549603 0.105053 -0.059164 -24.549538 -0.000000 0.000000 0.000000 0.492563 1.016797 -0.354692 0.000000 0.000000 0.000000 -0.000000 0.000000 0.000000 -0.000000 0.000000 0.000000 -0.660590 0.113036 0.537865 2.953381 0.378329 -1.007713 0.000000 0.000000 0.000000 0.000000 0.000000 0.000000 -0.089104 1.477735 0.456908 0.967474 0.663229 0.257932 0.478654 -12.023688 -0.743138 -11.200691 8.809878 3.303745 0.000000 0.000000 0.000000 0.000000 0.000000 0.000000 0.105053 -0.059164 -24.549538 -0.000000 0.000000 0.000000 -0.000000 0.000000 0.000000 0.000000 0.000000 0.000000 0.991604 0.241441 -24.661518 -1.379811 -1.345422 0.227474 0.702305 0.699463 -0.137148 0.000000 0.000000 0.000000
64.590403 71.064971 290.731300 -0.126230 0.006481 24.459575 0.112218 -0.058165 -24.459511 -0.000000 0.000000 0.000000 0.402597 1.317059 -0.376028 0.000000 0.000000 0.000000 -0.000000 0.000000 0.000000 -0.000000 0.000000 0.000000 -0.719675 0.082879 0.580439 1.769770 1.411036 -0.412387 0.000000 0.000000 0.000000 0.000000 0.000000 0.000000 -0.037251 1.701142 0.523116 0.943725 0.243756 0.157868 0.005399 -11.724108 -0.762303 -10.075959 7.369671 2.877695 0.000000 0.000000 0.000000 0.000000 0.000000 0.000000 0.112218 -0.058165 -24.459511 -0.000000 0.000000 0.000000 -0.000000 0.000000 0.000000 0.000000 0.000000 0.000000 0.112218 -0.058165 -24.459511 -0.631815 -0.540372 0.119749 0.632971 0.539017 -0.125706 0.000000 0.000000 0.000000
